# AST/ASF file generated using VICON BodyLanguage
# -----------------------------------------------
:version 1.10
:name VICON
:units
  mass 1.0
  length 0.45
  angle deg
:documentation
   .ast/.asf automatically generated from VICON data using
   VICON BodyBuilder and BodyLanguage model FoxedUp or BRILLIANT.MOD
:root
   order TX TY TZ RX RY RZ
   axis XYZ
   position 0 0 0  
   orientation 0 0 0 
:bonedata
  begin
     id 1 
     name lhipjoint
     direction 0.690799 -0.707083 0.151096 
     length 2.54797 
     axis 0 0 0  XYZ
  end
  begin
     id 2 
     name lfemur
     direction 0.34202 -0.939693 0  
     length 7.21646  
     axis 0 0 20  XYZ
    dof rx ry rz
    limits (-160.0 20.0)
           (-70.0 70.0)
           (-60.0 70.0)
  end
  begin
     id 3 
     name ltibia
     direction 0.34202 -0.939693 0   
     length 8.16759   
     axis 0 0 20   XYZ
    dof rx
    limits (-10.0 170.0)
  end
  begin
     id 4 
     name lfoot
     direction 0.0487203 -0.133858 0.989802   
     length 1.93375   
     axis -90 7.62852e-016 20   XYZ
    dof rx rz
    limits (-45.0 90.0)
           (-70.0 20.0)
  end
  begin
     id 5 
     name ltoes
     direction 1.53453e-011 -4.21783e-011 1   
     length 0.979747   
     axis -90 7.62852e-016 20   XYZ
    dof rx
    limits (-90.0 20.0)
  end
  begin
     id 6 
     name rhipjoint
     direction -0.694693 -0.703425 0.150315   
     length 2.56122  
     axis 0 0 0  XYZ 
  end
  begin
     id 7 
     name rfemur
     direction -0.34202 -0.939693 0   
     length 7.36786   
     axis 0 0 -20   XYZ
    dof rx ry rz
    limits (-160.0 20.0)
           (-70.0 70.0)
           (-70.0 60.0)
  end
  begin
     id 8 
     name rtibia
     direction -0.34202 -0.939693 0   
     length 8.07288   
     axis 0 0 -20   XYZ
    dof rx
    limits (-10.0 170.0)
 end
 begin
     id 9 
     name rfoot
     direction -0.0428397 -0.117701 0.992125   
     length 1.88295  
     axis -90 -7.62852e-016 -20   XYZ
    dof rx rz
    limits (-45.0 90.0)
           (-20.0 70.0)
  end
  begin
     id 10 
     name rtoes
     direction -1.53456e-011 -4.2187e-011 1   
     length 0.955578   
     axis -90 -7.62852e-016 -20   XYZ
    dof rx
    limits (-90.0 20.0)
  end
  begin
     id 11 
     name lowerback
     direction 0.0288145 0.999398 -0.0193241   
     length 1.92149   
     axis 0 0 0   XYZ
    dof rx ry rz
    limits (-20.0 45.0)
           (-30.0 30.0)
           (-30.0 30.0)
  end
  begin
     id 12 
     name upperback
     direction 0.0233784 0.998099 0.0570278   
     length 1.90435   
     axis 0 0 0   XYZ
    dof rx ry rz
    limits (-20.0 45.0)
           (-30.0 30.0)
           (-30.0 30.0)
  end
  begin
     id 13 
     name thorax
     direction 0.0096694 0.997833 0.0650817   
     length 1.9111   
     axis 0 0 0   XYZ
    dof rx ry rz
    limits (-20.0 45.0)
           (-30.0 30.0)
           (-30.0 30.0)
  end
  begin
     id 14 
     name lowerneck
     direction 0.00516803 0.999916 0.0118722   
     length 1.74664   
     axis 0 0 0   XYZ
    dof rx ry rz
    limits (-20.0 45.0)
           (-30.0 30.0)
           (-30.0 30.0)
  end
  begin
     id 15 
     name upperneck
     direction -0.0510851 0.996117 -0.071696   
     length 1.68498   
     axis 0 0 0   XYZ
    dof rx ry rz
    limits (-20.0 45.0)
           (-30.0 30.0)
           (-30.0 30.0)
  end
  begin
     id 16
     name head
     direction -0.019188 0.999436 -0.0275702  
     length 1.83483  
     axis 0 0 0   XYZ
    dof rx ry rz
    limits (-20.0 45.0)
           (-30.0 30.0)
           (-30.0 30.0)
  end
  begin
     id 17 
     name lclavicle
     direction 0.967006 0.248456 -0.0562957  
     length 3.39395  
     axis 0 0 0   XYZ
    dof ry rz
    limits (-20.0 10.0)
           (0.0 20.0)
  end
  begin
     id 18 
     name lhumerus
     direction 1 -4.48962e-011 -5.62711e-019   
     length 5.24318   
     axis 180 -30 -90   XYZ
    dof rx ry rz
    limits (-60.0 90.0)
           (-90.0 90.0)
           (-90.0 90.0)
  end
  begin
     id 19
     name lradius
     direction 1 -4.48966e-011 7.90625e-027   
     length 2.98999   
     axis 180 -30 -90   XYZ
    dof rx
    limits (-10.0 170.0)
  end
  begin
     id 20
     name lwrist
     direction 1 -4.48959e-011 1.61068e-026   
     length 1.49499   
     axis -9.31229e-015 90 90   XYZ
    dof ry
    limits (-180.0 0.0)
 end
  begin
     id 21 
     name lhand
     direction 1 -4.49017e-011 3.22136e-026   
     length 0.726745   
     axis -2.0555e-014 90 90   XYZ
    dof rx rz
    limits (-90.0 90.0)
           (-45.0 45.0)
  end
  begin
     id 22 
     name lfingers
     direction 1 -4.4898e-011 6.44272e-026   
     length 0.58592   
     axis -4.11101e-014 90 90   XYZ
    dof rx
    limits (0.0 90.0)
  end
  begin
     id 23
     name lthumb
     direction 0.707107 -6.34922e-011 0.707107   
     length 0.841268   
     axis -90 45 2.85299e-015   XYZ
    dof rx rz
    limits (-45.0 45.0)
           (-45.0 45.0)
  end
  begin
     id 24 
     name rclavicle
     direction -0.972232 0.230238 0.0419005   
     length 3.40416  
     axis 0 0 0   XYZ 
    dof ry rz
    limits (-10.0 20.0)
           (-20.0 0.0)
  end
  begin
     id 25 
     name rhumerus
     direction -1 -4.48976e-011 2.48487e-027  
     length 5.37045   
     axis 180 30 90   XYZ
    dof rx ry rz
    limits (-90.0 60.0)
           (-90.0 90.0)
           (-90.0 90.0)
  end
  begin
     id 26 
     name rradius
     direction -1 -4.48942e-011 7.87951e-027   
     length 2.92792   
     axis 180 30 90   XYZ
    dof rx
    limits (-10.0 170.0)
  end
  begin
     id 27 
     name rwrist
     direction -1 -4.48969e-011 1.61068e-026   
     length 1.46396   
     axis -9.31229e-015 -90 -90   XYZ
    dof ry
    limits (-180.0 0.0)
  end
  begin
     id 28
     name rhand
     direction -1 -4.49043e-011 3.22136e-026   
     length 0.784497   
     axis -2.0555e-014 -90 -90   XYZ
    dof rx rz
    limits (-90.0 90.0)
           (-45.0 45.0)
  end
  begin
     id 29
     name rfingers
     direction -1 -4.48823e-011 6.44272e-026   
     length 0.632482   
     axis -4.11101e-014 -90 -90   XYZ
    dof rx
    limits (0.0 90.0)
  end
  begin
     id 30
     name rthumb
     direction -0.707107 -6.34923e-011 0.707107   
     length 0.908121   
     axis -90 -45 -2.85299e-015   XYZ
    dof rx rz
    limits (-45.0 45.0)
           (-45.0 45.0)
  end
:hierarchy
  begin
    root lhipjoint rhipjoint lowerback
    lhipjoint lfemur
    lfemur ltibia
    ltibia lfoot
    lfoot ltoes
    rhipjoint rfemur
    rfemur rtibia
    rtibia rfoot
    rfoot rtoes
    lowerback upperback
    upperback thorax
    thorax lowerneck lclavicle rclavicle
    lowerneck upperneck
    upperneck head
    lclavicle lhumerus
    lhumerus lradius
    lradius lwrist
    lwrist lhand lthumb
    lhand lfingers
    rclavicle rhumerus
    rhumerus rradius
    rradius rwrist
    rwrist rhand rthumb
    rhand rfingers
  end

#!OML:ASF E:\Style6\Style6.ASF
:FULLY-SPECIFIED
:DEGREES
924
root 0.736199 16.8591 -1.13899 29.3756 26.5761 17.25
lowerback 13.7972 4.73622 15.0044
upperback -1.48974 9.94949 10.6231
thorax -8.95931 4.36079 1.26802
lowerneck -6.31007 2.5366 4.73019
upperneck 1.21011 4.63701 -28.9933
head 2.37066 1.96283 -9.78955
rclavicle 4.45278e-014 7.95139e-014
rhumerus 1.21134 -54.9961 -5.1576
rradius 41.7904
rwrist -17.1669
rhand -4.73745 -0.782673
rfingers 7.12502
rthumb 21.0457 -29.6607
lclavicle 4.45278e-014 7.95139e-014
lhumerus -37.9531 6.38449 19.0239
lradius 48.1029
lwrist 12.8538
lhand -16.5585 27.8318
lfingers 7.12502
lthumb 9.66135 57.5902
rfemur -54.3259 -37.1824 11.5621
rtibia 56.1413
rfoot -16.7184 3.13178
rtoes -18.8832
lfemur -49.6086 -16.4716 -31.6232
ltibia 38.122
lfoot -5.18998 -15.4276
ltoes 1.59665
925
root 0.739727 16.8818 -1.12608 29.147 26.6254 17.0459
lowerback 13.7438 4.75557 14.993
upperback -1.54786 9.96928 10.5892
thorax -8.98821 4.36704 1.23707
lowerneck -6.19532 2.60049 4.9042
upperneck 1.1483 4.70112 -29.0586
head 2.35023 2.00846 -9.84314
rclavicle -3.02153e-014 -1.46306e-013
rhumerus 1.02474 -54.9343 -5.05169
rradius 41.8223
rwrist -17.1926
rhand -4.58467 -0.805763
rfingers 7.12502
rthumb 21.1924 -29.6674
lclavicle -3.02153e-014 -1.46306e-013
lhumerus -37.8702 6.42661 18.7164
lradius 48.1346
lwrist 12.7907
lhand -16.7383 27.7433
lfingers 7.12502
lthumb 9.48785 57.5097
rfemur -53.8348 -36.9858 11.592
rtibia 55.7928
rfoot -16.7375 2.96179
rtoes -19.2343
lfemur -49.2369 -16.3384 -31.4905
ltibia 37.815
lfoot -5.14838 -15.4973
ltoes 1.52458
926
root 0.747091 16.9049 -1.11172 28.9332 26.6226 16.9608
lowerback 13.6816 4.78805 14.8911
upperback -1.57901 9.98143 10.5393
thorax -8.99144 4.37612 1.23733
lowerneck -6.21516 2.64051 4.96623
upperneck 1.20862 4.76767 -29.0313
head 2.38359 2.03483 -9.84131
rclavicle 6.36111e-015 1.59028e-014
rhumerus 0.85619 -54.8991 -4.96562
rradius 41.9219
rwrist -17.3247
rhand -4.41641 -0.787851
rfingers 7.12502
rthumb 21.354 -29.6312
lclavicle 6.36111e-015 1.59028e-014
lhumerus -37.7463 6.35039 18.481
lradius 48.091
lwrist 12.9019
lhand -16.994 27.5622
lfingers 7.12502
lthumb 9.24109 57.3397
rfemur -53.2769 -36.8234 11.4371
rtibia 55.4399
rfoot -16.7267 2.85952
rtoes -19.2172
lfemur -48.7851 -16.2377 -31.4989
ltibia 37.504
lfoot -5.13497 -15.5293
ltoes 1.80986
927
root 0.753631 16.9258 -1.09807 28.7545 26.6326 16.8612
lowerback 13.6013 4.8337 14.7899
upperback -1.64037 10.0153 10.501
thorax -9.01985 4.39402 1.24715
lowerneck -6.19861 2.66114 4.91929
upperneck 1.24981 4.80378 -28.9175
head 2.393 2.05078 -9.78881
rclavicle -9.54166e-014 -2.8625e-014
rhumerus 0.703937 -54.8463 -4.8424
rradius 41.9595
rwrist -17.3872
rhand -4.4234 -0.860754
rfingers 7.12502
rthumb 21.3473 -29.7049
lclavicle -9.54166e-014 -2.8625e-014
lhumerus -37.6498 6.24207 18.2671
lradius 48.1574
lwrist 13.0041
lhand -17.0426 27.5402
lfingers 7.12502
lthumb 9.19422 57.3198
rfemur -52.8153 -36.707 11.3698
rtibia 55.1008
rfoot -16.6373 2.73026
rtoes -19.2049
lfemur -48.3947 -16.142 -31.4748
ltibia 37.2002
lfoot -5.0965 -15.5512
ltoes 2.0443
928
root 0.75852 16.9454 -1.08517 28.5626 26.6958 16.6709
lowerback 13.4809 4.87871 14.7269
upperback -1.70745 10.0549 10.519
thorax -9.03774 4.41619 1.30187
lowerneck -6.15875 2.67787 4.92012
upperneck 1.30687 4.83597 -28.8483
head 2.40471 2.06509 -9.76247
rclavicle -1.1291e-013 -8.90555e-014
rhumerus 0.641154 -54.845 -4.74569
rradius 41.913
rwrist -17.3306
rhand -4.54526 -0.888598
rfingers 7.12502
rthumb 21.2303 -29.746
lclavicle -1.1291e-013 -8.90555e-014
lhumerus -37.5747 6.20032 18.0584
lradius 48.1833
lwrist 12.9671
lhand -16.9976 27.4798
lfingers 7.12502
lthumb 9.23769 57.2575
rfemur -52.3726 -36.5359 11.4018
rtibia 54.7735
rfoot -16.3765 2.85331
rtoes -17.0433
lfemur -48.0653 -16.0691 -31.3279
ltibia 36.9005
lfoot -5.05972 -15.5692
ltoes 1.51979
929
root 0.761773 16.9637 -1.07126 28.3779 26.748 16.5936
lowerback 13.3911 4.89308 14.5575
upperback -1.73749 10.0361 10.5323
thorax -9.04989 4.41759 1.41348
lowerneck -6.14717 2.71638 4.87247
upperneck 1.31333 4.89165 -28.7619
head 2.40988 2.09325 -9.71847
rclavicle 9.70069e-014 9.54166e-015
rhumerus 0.651095 -54.9093 -4.78285
rradius 41.9062
rwrist -17.2521
rhand -4.46408 -0.818183
rfingers 7.12502
rthumb 21.3083 -29.6667
lclavicle 9.70069e-014 9.54166e-015
lhumerus -37.5433 6.21405 17.8387
lradius 48.2073
lwrist 12.9626
lhand -16.9336 27.5258
lfingers 7.12502
lthumb 9.29941 57.3007
rfemur -51.8851 -36.3724 11.2878
rtibia 54.4658
rfoot -15.9831 3.17812
rtoes -12.6929
lfemur -47.6898 -16.0131 -31.2934
ltibia 36.615
lfoot -4.91547 -15.6422
ltoes 1.73494
930
root 0.767026 16.9831 -1.05724 28.1674 26.7697 16.5484
lowerback 13.3367 4.88551 14.3844
upperback -1.73809 9.98707 10.5283
thorax -9.04732 4.40512 1.51067
lowerneck -6.23918 2.78458 4.79312
upperneck 1.36338 5.00703 -28.6748
head 2.45666 2.13957 -9.66405
rclavicle 0 -1.90833e-014
rhumerus 0.689155 -54.8902 -4.88059
rradius 41.9147
rwrist -17.2641
rhand -4.53656 -0.823595
rfingers 7.12502
rthumb 21.2386 -29.68
lclavicle 0 -1.90833e-014
lhumerus -37.5484 6.21247 17.6061
lradius 48.256
lwrist 13.0779
lhand -16.9379 27.5548
lfingers 7.12502
lthumb 9.2953 57.3299
rfemur -51.3484 -36.256 11.1158
rtibia 54.1523
rfoot -15.9928 3.08215
rtoes -12.6568
lfemur -47.2482 -15.9368 -31.3289
ltibia 36.3473
lfoot -4.91605 -15.6829
ltoes 1.25456
931
root 0.773222 17.0026 -1.04147 27.9866 26.8338 16.4086
lowerback 13.1983 4.92919 14.3585
upperback -1.80152 10.0173 10.4836
thorax -9.03167 4.42004 1.48191
lowerneck -6.26305 2.80541 4.84193
upperneck 1.47901 5.0585 -28.6282
head 2.50236 2.15381 -9.65398
rclavicle 1.59028e-014 9.54166e-015
rhumerus 0.415049 -54.9077 -4.72671
rradius 41.9336
rwrist -17.2033
rhand -4.6439 -0.830988
rfingers 7.12502
rthumb 21.1355 -29.699
lclavicle 1.59028e-014 9.54166e-015
lhumerus -37.3964 6.0836 17.4001
lradius 48.3595
lwrist 13.2206
lhand -16.9076 27.75
lfingers 7.12502
lthumb 9.3245 57.5238
rfemur -50.9054 -36.1619 11.1226
rtibia 53.8351
rfoot -16.3624 2.37098
rtoes -18.1073
lfemur -46.8997 -15.9285 -31.2056
ltibia 36.0912
lfoot -4.9078 -15.6635
ltoes 0.984522
932
root 0.778897 17.0209 -1.02565 27.7425 26.8861 16.2375
lowerback 13.1002 4.97706 14.34
upperback -1.85383 10.0629 10.4537
thorax -9.02798 4.44175 1.45933
lowerneck -6.20043 2.80761 4.8996
upperneck 1.54651 5.06853 -28.5909
head 2.5114 2.15808 -9.65192
rclavicle 5.40694e-014 5.725e-014
rhumerus 0.215881 -54.9445 -4.60396
rradius 41.9438
rwrist -17.1248
rhand -4.72308 -0.951279
rfingers 7.12502
rthumb 21.0595 -29.8277
lclavicle 5.40694e-014 5.725e-014
lhumerus -37.2272 6.04735 17.1962
lradius 48.3684
lwrist 13.1906
lhand -16.8762 27.6469
lfingers 7.12502
lthumb 9.35476 57.4193
rfemur -50.3992 -36.0271 11.1213
rtibia 53.5016
rfoot -16.4869 1.93998
rtoes -20.787
lfemur -46.5231 -15.8735 -31.0831
ltibia 35.8476
lfoot -4.92458 -15.6398
ltoes 0.7643
933
root 0.782534 17.0401 -1.0111 27.4438 26.9239 16.0296
lowerback 13.0603 5.00033 14.308
upperback -1.87094 10.0859 10.4692
thorax -9.03126 4.45554 1.49197
lowerneck -6.22434 2.85148 4.9004
upperneck 1.6335 5.15528 -28.5912
head 2.55619 2.19222 -9.6474
rclavicle -2.22639e-014 -1.145e-013
rhumerus 0.249763 -55.0607 -4.66314
rradius 41.9314
rwrist -17.0165
rhand -4.64542 -0.982671
rfingers 7.12502
rthumb 21.1341 -29.8508
lclavicle -2.22639e-014 -1.145e-013
lhumerus -37.1202 6.14089 16.9741
lradius 48.3064
lwrist 13.1457
lhand -16.9943 27.4055
lfingers 7.12502
lthumb 9.24087 57.183
rfemur -49.8235 -35.7928 11.1035
rtibia 53.1571
rfoot -16.4544 1.6867
rtoes -21.6898
lfemur -46.1232 -15.7942 -30.9247
ltibia 35.6022
lfoot -4.85297 -15.6405
ltoes 1.34052
934
root 0.788487 17.0615 -0.99544 27.1455 26.9838 15.8466
lowerback 13.0052 5.01838 14.302
upperback -1.90298 10.1031 10.4646
thorax -9.03472 4.46394 1.49166
lowerneck -6.26636 2.90001 4.95858
upperneck 1.80682 5.26607 -28.6106
head 2.63544 2.2298 -9.65992
rclavicle 1.59028e-015 3.18055e-015
rhumerus 0.176317 -55.1051 -4.66822
rradius 41.9038
rwrist -17.0129
rhand -4.59961 -0.906095
rfingers 7.12502
rthumb 21.1781 -29.7693
lclavicle 1.59028e-015 3.18055e-015
lhumerus -36.9478 6.22939 16.72
lradius 48.2367
lwrist 13.0877
lhand -16.9712 27.4381
lfingers 7.12502
lthumb 9.26316 57.2146
rfemur -49.2192 -35.6434 11.067
rtibia 52.8069
rfoot -16.4457 1.52432
rtoes -22.2753
lfemur -45.669 -15.7569 -30.7878
ltibia 35.3503
lfoot -4.79389 -15.6477
ltoes 1.92515
